/* XPM */
static char *out[] = {
/* columns rows colors chars-per-pixel */
"32 32 74 1 ",
"  c None",
". c black",
"X c #070504",
"o c #090605",
"O c #0F0B08",
"+ c #110C09",
"@ c #120D0A",
"# c #140E0A",
"$ c #150E0C",
"% c #18120D",
"& c #1B120F",
"* c #1E1510",
"= c #221713",
"- c #251815",
"; c #2D211A",
": c #31211B",
"> c #33261D",
", c #36251D",
"< c #37271E",
"1 c #38271F",
"2 c #372920",
"3 c #3A2B22",
"4 c #3C2A20",
"5 c #3C2C22",
"6 c #3E2D23",
"7 c #3F2F22",
"8 c #362F35",
"9 c #412F24",
"0 c #423126",
"q c #443224",
"w c #443126",
"e c #453327",
"r c #493527",
"t c #493428",
"y c #4B3528",
"u c #493629",
"i c #4A3628",
"p c #4E372A",
"a c #4F392B",
"s c #50392B",
"d c #533B2B",
"f c #533D28",
"g c #553E29",
"h c #533C2D",
"j c #583F2F",
"k c #403434",
"l c #543F33",
"z c #5A412B",
"x c #5D442B",
"c c #594230",
"v c #5C4332",
"b c #5E4533",
"n c #62462E",
"m c #674930",
"M c #634935",
"N c #644A36",
"B c #674C37",
"V c #6B543A",
"C c #725436",
"Z c #72543D",
"A c #745A3D",
"S c #504F5F",
"D c #585D75",
"F c #8E6739",
"G c #936A3B",
"H c #956B3C",
"J c #AC7C42",
"K c #B68A4E",
"L c #A38C5A",
"P c #BC9E61",
"I c #D59B51",
"U c #D7A157",
"Y c #DDB56A",
"T c #697495",
/* pixels */
"TD8--------------------------8DT",
"DSk11111111111111111111111111kSD",
"8klbbbbbbbbbbbbbbbbbbbbbbbbbblk8",
"-1bZZZZZZZZZZZZZZZZZZZZZZZZZZb1-",
"-1bZZZZZZZZZZZZZZZZZZZZZZZZZZb1-",
"-,jBNMMMMMMMMMMMMMMMMMMMMMMNBj,-",
"-:yhueeeeeeeeeeeeeeeeeeeeeeuhy:-",
"-:ya623553223555555322355326ay:-",
"-,jv03wttw33wttttttw33wttw30vj,-",
"-1bMe5tssy99ysssssst55tsst5eMb1-",
"-1bMe5tsspyypsssssst55tsst5eMb1-",
"-1bMe5tssssssssssssy99ysst5eMb1-",
"-1bMe5tsssssssssssspyypsst5eMb1-",
"-1bMe5tsssssssssssssssssst5eMb1-",
"-1bMe5tsssssssssssssssssst5eMb1-",
"-1bMe5tsssssssssssssscVACnqeMb1-",
"-1bMe5tssssssssssssssVLPKGgeMb1-",
"-1bMe5tssssssssssssssAPYUJxeMb1-",
"-1bMe5tssssssssssssssCKUIJxeMb1-",
"-1bMe5tssssssssssssssmHJJFfeMb1-",
"-1bMe5tssssssssssssssdzxxf7eMb1-",
"-1bMe5tsspyypssssssssy95532eMb1-",
"-1bMe5tssy99ysssssssspyttw3eMb1-",
"-1bMe5tsst55tsssssssssssst5eMb1-",
"-1bMe5tsst55tsssssssssssst5eMb1-",
"-1bMe5tsst55tsssssspyypsst5eMb1-",
"-1bMe5tsst55tssssssy99ysst5eMb1-",
"-:ri>;<44<;;<444444<;;<44<;>ir:-",
"-=*%+O@##@OO@######@OO@##@O+%*=-",
"&$X..........................X$&",
"oX                            Xo",
"..                            .."
};
