/* XPM */
static char *out[] = {
/* columns rows colors chars-per-pixel */
"32 32 66 1 ",
"  c None",
". c black",
"X c #050302",
"o c #070503",
"O c #070504",
"+ c #090605",
"@ c #0D0A08",
"# c #0F0A08",
"$ c #0F0B08",
"% c #110C09",
"& c #120D0A",
"* c #140E0A",
"= c #150F0B",
"- c #150E0C",
"; c #18120D",
": c #1B120F",
"> c #1C150F",
", c #1C1410",
"< c #1E1510",
"1 c #221713",
"2 c #251815",
"3 c #241A14",
"4 c #281E18",
"5 c #2D2018",
"6 c #2D211A",
"7 c #31211B",
"8 c #33261D",
"9 c #36251D",
"0 c #34261D",
"q c #37271E",
"w c #38271F",
"e c #372820",
"r c #372920",
"t c #3A2A20",
"y c #3A2B22",
"u c #3C2A20",
"i c #3C2C22",
"p c #3E2D23",
"a c #362F35",
"s c #402F22",
"d c #423126",
"f c #443126",
"g c #453327",
"h c #493527",
"j c #493428",
"k c #4B3528",
"l c #493629",
"z c #4A3628",
"x c #4C3729",
"c c #4F392B",
"v c #523C2C",
"b c #533C2D",
"n c #553F2D",
"m c #583F2F",
"M c #403434",
"N c #543F33",
"B c #5C4332",
"V c #5E4533",
"C c #634935",
"Z c #644A36",
"A c #674C37",
"S c #694D38",
"D c #72543D",
"F c #504F5F",
"G c #585D75",
"H c #697495",
/* pixels */
"HHHGa222222222222222222222222222",
"GGGFMwwwwwwwwwwwwwwwwwwwwwwwwwww",
"aaaMNVVVVVVVVVVVVVVVVVVVVVVVVVVV",
"222wVDDDDDDDDDDDDDDDDDDDDDDDDDDD",
"222wVDDDDDDDDDDDDDDDDDDDDDDDDDDD",
"2229mAZCCCCCCCCCCCCCCCCCCCCCCZAS",
"2227kblgggggggggggggggggggggglbm",
"2227kcprye64444444444444444440xm",
"2229mBdyft,@@@@@@@@@@@@@@@@@@3vS",
"222wVCgiju*..................>nD",
"222wVCgiju*..................>nD",
"222wVCgiju*..................>nD",
"222wVCgiju*..................>nD",
"222wVCgiju*..................>nD",
"222wVCgiju*..................>nD",
"222wVCgiju*..................>nD",
"222wVCgiju*..................>nD",
"222wVCgiju*..................>nD",
"222wVCgiju*..................>nD",
"222wVCgiju*..................>nD",
"222wVCgiju*..................>nD",
"222wVCgiju*..................>nD",
"222wVCgiju*..................>nD",
"222wVCgiju*..................>nD",
"222wVCgiju*..................>nD",
"222wVCgiju*..................>nD",
"222wVCgiju*..................>nD",
"2227hz86q5#..................=sn",
"2221<;%$&#X..................o=>",
":::-O...........................",
"+++O                            ",
"....                            "
};
