/* XPM */
static char *out[] = {
/* columns rows colors chars-per-pixel */
"32 32 200 2 ",
"   c None",
".  c #010101",
"X  c #0B090C",
"o  c #070609",
"O  c #1A0907",
"+  c #120C0B",
"@  c #0E0C11",
"#  c #110A11",
"$  c #191617",
"%  c #31100D",
"&  c #261818",
"*  c #38241D",
"=  c #1D1824",
"-  c #231A26",
";  c #30192F",
":  c #2A2D2D",
">  c #27232A",
",  c #35222A",
"<  c #2C2A34",
"1  c #2F3232",
"2  c #38363A",
"3  c #461B19",
"4  c #551E18",
"5  c #5E2019",
"6  c #622119",
"7  c #482A27",
"8  c #473B38",
"9  c #583C3A",
"0  c #7E2B21",
"q  c #603733",
"w  c #584139",
"e  c #6F423A",
"r  c #3C354C",
"t  c #3E2D45",
"y  c #433849",
"u  c #533C4A",
"i  c #433752",
"p  c #4D3C5A",
"a  c #483755",
"s  c #533B5E",
"d  c #583557",
"f  c #763D43",
"g  c #6A3A44",
"h  c #5B3C63",
"j  c #543E60",
"k  c #633F69",
"l  c #6B3869",
"z  c #753D73",
"x  c #464042",
"c  c #4A4545",
"v  c #404348",
"b  c #49474A",
"n  c #554649",
"m  c #49465E",
"M  c #5A4656",
"N  c #4F5156",
"B  c #545154",
"V  c #5A585D",
"C  c #664C49",
"Z  c #76494D",
"A  c #7C5443",
"S  c #61445B",
"D  c #694459",
"F  c #714759",
"G  c #68565C",
"H  c #564162",
"J  c #5B4264",
"K  c #5C4368",
"L  c #595E65",
"P  c #5A536F",
"I  c #5E5271",
"U  c #62416A",
"Y  c #6A406E",
"T  c #684867",
"R  c #6D5B66",
"E  c #775565",
"W  c #6D4472",
"Q  c #754579",
"!  c #7A457C",
"~  c #794979",
"^  c #77577A",
"/  c #7D4D6B",
"(  c #5E6568",
")  c #686767",
"_  c #676F70",
"`  c #7D6777",
"'  c #777779",
"]  c #7A6465",
"[  c #9A3428",
"{  c #C5473D",
"}  c #D24837",
"|  c #E04D3B",
" . c #973F42",
".. c #884A46",
"X. c #8A5348",
"o. c #875A5D",
"O. c #965E56",
"+. c #9F4744",
"@. c #A54041",
"#. c #A75E5F",
"$. c #BB5D5B",
"%. c #89725C",
"&. c #8E6551",
"*. c #80476E",
"=. c #8C5278",
"-. c #985778",
";. c #8F546F",
":. c #9B6667",
">. c #8C7461",
",. c #9E7561",
"<. c #837779",
"1. c #896E7A",
"2. c #A56B64",
"3. c #B67468",
"4. c #B9696B",
"5. c #CA5F57",
"6. c #DC665B",
"7. c #968272",
"8. c #83827A",
"9. c #BB896E",
"0. c #A58D75",
"q. c #B6947C",
"w. c #C4845F",
"e. c #C58A79",
"r. c #CA926D",
"t. c #E19C67",
"y. c #D8A076",
"u. c #E4A16B",
"i. c #7E4B82",
"p. c #797C82",
"a. c #834682",
"s. c #854985",
"d. c #8B4C83",
"f. c #8C4A8A",
"g. c #934D8B",
"h. c #964F87",
"j. c #995089",
"k. c #A7558E",
"l. c #BA5C8E",
"z. c #BA5C90",
"x. c #877B87",
"c. c #986698",
"v. c #8D6B91",
"b. c #A37D88",
"n. c #A57FAB",
"m. c #3B909A",
"M. c #7F8484",
"N. c #78CBCD",
"B. c #868282",
"V. c #948588",
"C. c #959094",
"Z. c #B88C89",
"A. c #B9948C",
"S. c #AF8993",
"D. c #9CAE9D",
"F. c #ADAD9F",
"G. c #9997A2",
"H. c #B89BA4",
"J. c #8FBBBF",
"K. c #AAA9A5",
"L. c #A8A9B5",
"P. c #AAB3BB",
"I. c #BDB1BE",
"U. c #B8A9B3",
"Y. c #CF8B83",
"T. c #D79998",
"R. c #DF968B",
"E. c #DDAF99",
"W. c #E2AE85",
"Q. c #E9B789",
"!. c #E1B999",
"~. c #C9A2A5",
"^. c #D4A3A7",
"/. c #C1B5B7",
"(. c #D1B4BC",
"). c #B8CAB5",
"_. c #E7C39D",
"`. c #EFC498",
"'. c #DCCBA9",
"]. c #C8CAAF",
"[. c #E9CBA7",
"{. c #F1CBA2",
"}. c #ACB3C0",
"|. c #B3BCCA",
" X c #B2B9C7",
".X c #B4C5C5",
"XX c #BDC8CF",
"oX c #AED3D2",
"OX c #CEDEDC",
"+X c #D8D4D7",
"@X c #CDC8CC",
"#X c #EADDD6",
"$X c #CBE2DE",
"%X c #D0E0DF",
"&X c #CFD5E0",
"*X c #CDD7E8",
"=X c #D2DBE6",
"-X c #D9EBEE",
";X c #D6E7EE",
":X c #DFF5F4",
/* pixels */
"                                                                ",
"                                                                ",
"                        r r r r r r r r r r                     ",
"                      s k Y l Y U m m m K k a                   ",
"                    i h s.f.f.f.i.I P I i.i.p i                 ",
"                  i Y i.f.f.f.f.f.i.i.i.s.i.i.K r               ",
"                p h ! f.f.f.f.g.f.f.f.f.f.f.f.Q j p             ",
"              r k s.f.f.f.f.f.f.f.f.f.f.f.f.f.f.s.h r           ",
"            s k ! f.f.g.k.d.Q a.s.Q d.k.k.k.g.f.f.h r           ",
"          r s s.s.s.f.j.z.=.J Q ! R ;.l.z.z.g.f.f.h r           ",
"          r j f.Q z a.g.j.~ J k / 3.:.~ h.j.f.f.f.h r           ",
"          r a d T E =.a.Q U s m ] y.,.t d l *.h.-.d >           ",
"              # 9 2.h.Q s i i p ` !.%.o X ; z -.3.7 o           ",
"              . 7 O./ ~ ' B > %.A._.%.o 8 R =.=.O., .           ",
"              . , Z M p./.) $ 0.{.{.%.$ ' U.c.*.Z & .           ",
"              . , S h x.+XJ.m.F.{.[.D.m.oX(.v.T S & .           ",
"              . - y S V.#XoXN.].{.{.).N.$X@X<.M r $ .           ",
"          x : o o $ A r.[.[.'.{.{.{.[.'.[.!.w.e X o X 2 x       ",
"        B p.p.( ( V C &.y.W.Q.{.{.`.`.Q.W.9.A C L ( _ p.'       ",
"      x B L.=X:X;X|.v * O.w.u.Q._._.Q.t.w.X.$ L *X;X-X&XG.x     ",
"      x n 3.T.=X=X|.v & w %.q.7.7.7.0.q.%.8 + L *X*X+XR.2.x     ",
"      y n +.4.U.I.H.n > B p.K.<.) ) B.K.' y & G (.}.H.$...y     ",
"    r y i S F E #.5.Z R L.@XOXK.8.V.F.$XXXG.C ..6.#.E F M r     ",
"    r r i U i.V.Z.e.o.E S.~.^.e.3.3.Y.~.H.b.D :.R.S.x.^ h i     ",
"    r r i ! S.;X:X%X<.g  .{ | | | | { @.+.[ g C.:X:X&Xc.W r     ",
"    r i s ! n.-X:X$XB.9 3 o.^.^.^.^.~.H.D 7 n C.:X:X&Xc.Q m     ",
"    r p k i.c..X.XP.' 8 $ _  X}.}. X XP.N - x M..X.XP.c.! H     ",
"    r m K i.k 2 : 1 b B b B V 2 1 V ) _ B c c 2 : : t ~ Q J     ",
"    r a j k s = X + q X.X...q & X > 8 Z X.....7 . @ - h U p     ",
"      r r r r r - O [ | | | | 3 . . 3 @.{ | | 0 . < r r r r     ",
"                  O 4 6 6 6 6 %     % 3 4 6 6 3                 ",
"                    . . . . .         . . . . .                 "
};
