/* XPM */
static char *out[] = {
/* columns rows colors chars-per-pixel */
"32 32 85 1 ",
"  c None",
". c black",
"X c #0C0E12",
"o c #0F1116",
"O c #13151B",
"+ c #13151C",
"@ c #171A21",
"# c #181A22",
"$ c #191B25",
"% c #20232F",
"& c #262A38",
"* c #272B38",
"= c #292D3C",
"- c #2A2E3F",
"; c #2B2F41",
": c #2D3244",
"> c #2F3346",
", c #303548",
"< c #33384B",
"1 c #33394B",
"2 c #353B4F",
"3 c #373D51",
"4 c #383D52",
"5 c #393E54",
"6 c #393F54",
"7 c #3B4153",
"8 c #3A4054",
"9 c #3C4156",
"0 c #3C4258",
"q c #3F4559",
"w c #3E445B",
"e c #3E455B",
"r c #3F465D",
"t c #41475D",
"y c #424860",
"u c #434A61",
"i c #434A62",
"p c #454C64",
"a c #454C65",
"s c #464D66",
"d c #474E66",
"f c #484F66",
"g c #474E68",
"h c #4A516B",
"j c #4B526B",
"k c #4B536E",
"l c #4D556F",
"z c #4E576F",
"x c #4E5671",
"c c #525B76",
"v c #535B76",
"b c #525B77",
"n c #555D74",
"m c #545C78",
"M c #555E79",
"N c #545D7A",
"B c #565F7B",
"V c #575F7B",
"C c #57607D",
"Z c #59627F",
"A c #596280",
"S c #5A6481",
"D c #5B6583",
"F c #5D6684",
"G c #606880",
"H c #606984",
"J c #626B86",
"K c #606A89",
"L c #656F8B",
"P c #626C8C",
"I c #656F8F",
"U c #6C758B",
"Y c #667192",
"T c #697390",
"R c #6B7592",
"E c #697495",
"W c #6B7696",
"Q c #737C92",
"! c #707A99",
"~ c #727D9B",
"^ c #77819E",
"/ c #7C859B",
"( c #7E88A3",
") c #808BA4",
"_ c #858FA7",
/* pixels */
"                                ",
"                                ",
"                                ",
"                                ",
"                                ",
" .zz=.11@zfoz8.=zz=qz8@z=.z88zz@",
".zEEveEENEExEE%PEEPPEExEvvENEEEE",
".8EESSEE!!EeNEeEEEE(EE4PSSPPEEEE",
".n~WKK^_LUQRENx!__)j/G~~~Vx!__)W",
".n~W3s!EH>t~Ep4TEEW9,J~~~d4TEEWd",
".faawZKkk3EPaa6PKkaA6EYKaa6EYkaA",
".1aawpAaa,xDaa<Daaaa<xkAaa<Pkaaa",
".&ww--yxs;>ww>-5yxx4-5www>-5yxx+",
"..ZZ--FNb3pZZZ--FExD>cZZZZ--FNNM",
".zKKZcaAakEPKKZcaaAaNEKKKKZcaaaA",
".8aapwaarSxgaapwaaa2Pxaaaapwaaaa",
".&xx662-<6xgwh666:;3exiwxx66wix*",
".7ENxxI2PExD2IPxNF3YPxclENxPlcEN",
".faaaAa,maar3kaaAa2haa5caakkwlaa",
".Xaaaar;;,,;;raaa2->,,->aaaa>-,$",
".zKK>pEPB:pEK0<PEPKu:FEEK0<PEPKu",
".8aawZxgg<ENaa6Nxgak6EPxaa6EPgak",
".1aa55Aai>rAar>Caaar>iaAar>Caaa4",
".X,,--0KC>;,,;->0KKs->,,,;->0KK#",
".OEE22Kbk0NEEE22KKaA4PEEEE22KkkY",
".zxxZpakaAENxxZpaaaaPExxxxZpaaak",
".1aa55ww5laaaa55www>maaaaa55aaa4",
".XKKZZl-pZKk,mZZZ2>cSKr,KKZZ,rKv",
".zKkakK3YKaA6PAabK6PAacZKkgDcZKk",
".8aaaka,0aa2<gaaka:yaa>paaggw2aa",
" ...............................",
"                                "
};
