/* XPM */
static char *out[] = {
/* columns rows colors chars-per-pixel */
"32 32 172 2 ",
"   c None",
".  c #1E1922",
"X  c #1F1D29",
"o  c #241E26",
"O  c #3F272E",
"+  c #352A2A",
"@  c #33332F",
"#  c #232433",
"$  c #24283A",
"%  c #2D2B3A",
"&  c #3D2E38",
"*  c #372A34",
"=  c #3B3730",
"-  c #33303F",
";  c #442B2E",
":  c #482B31",
">  c #4A2F3B",
",  c #44333E",
"<  c #4A3C3B",
"1  c #593F36",
"2  c #55333B",
"3  c #5C353C",
"4  c #5F3A3C",
"5  c #61373C",
"6  c #643F3D",
"7  c #6B3C3D",
"8  c #723D3D",
"9  c #2D4D3C",
"0  c #384D3D",
"q  c #39573E",
"w  c #325339",
"e  c #52493E",
"r  c #40573A",
"t  c #61432F",
"y  c #654339",
"u  c #60483B",
"i  c #73433C",
"p  c #78403F",
"a  c #76483A",
"s  c #794E3B",
"d  c #725F36",
"f  c #7B6838",
"g  c #353244",
"h  c #3A3444",
"j  c #3F3C57",
"k  c #433442",
"l  c #493546",
"z  c #413648",
"x  c #443A4C",
"c  c #493A4D",
"v  c #553F46",
"b  c #583B47",
"n  c #643D45",
"m  c #6A3F45",
"M  c #2F4E47",
"N  c #4C4848",
"B  c #59404F",
"V  c #584C48",
"C  c #4E5C4B",
"Z  c #52534C",
"A  c #494B5F",
"S  c #5D4353",
"D  c #5F4857",
"F  c #5A4559",
"G  c #5C4B5C",
"H  c #524856",
"J  c #54555E",
"K  c #624445",
"L  c #6D4246",
"P  c #694846",
"I  c #64454E",
"U  c #6D454F",
"Y  c #634A47",
"T  c #754243",
"R  c #794545",
"E  c #74474B",
"W  c #75494E",
"Q  c #7C4B4E",
"!  c #625840",
"~  c #7D5C4B",
"^  c #634855",
"/  c #6A4A54",
"(  c #604C5E",
")  c #6A4C5A",
"_  c #694552",
"`  c #734C54",
"'  c #794E52",
"]  c #744E59",
"[  c #625756",
"{  c #765B50",
"}  c #72525F",
"|  c #7A545F",
" . c #546B4E",
".. c #5C6A48",
"X. c #567249",
"o. c #486B58",
"O. c #54665A",
"+. c #55685B",
"@. c #566957",
"#. c #746F47",
"$. c #766849",
"%. c #786346",
"&. c #68675B",
"*. c #6A695D",
"=. c #696654",
"-. c #77645A",
";. c #617359",
":. c #494E62",
">. c #574C64",
",. c #4F5066",
"<. c #6B4E61",
"1. c #644F63",
"2. c #6D5363",
"3. c #735563",
"4. c #785A65",
"5. c #7B5E6A",
"6. c #4B6763",
"7. c #5C6862",
"8. c #5F7362",
"9. c #6A6962",
"0. c #716963",
"q. c #697A60",
"w. c #66766A",
"e. c #717163",
"r. c #76716A",
"t. c #814C3B",
"y. c #84513B",
"u. c #87583C",
"i. c #8F5E39",
"p. c #915C39",
"a. c #AB7B3D",
"s. c #8C5F43",
"d. c #80564B",
"f. c #846049",
"g. c #956F44",
"h. c #8D7B48",
"j. c #917741",
"k. c #9E7A42",
"l. c #8B7A5B",
"z. c #9F7F50",
"x. c #927A54",
"c. c #A37C45",
"v. c #3C8359",
"b. c #588958",
"n. c #52925E",
"m. c #69875E",
"M. c #758960",
"N. c #B5803E",
"B. c #95974B",
"V. c #978359",
"C. c #AC8144",
"Z. c #B08540",
"A. c #B58A45",
"S. c #B68F4C",
"D. c #B5954D",
"F. c #B99D50",
"G. c #B89C58",
"H. c #BAA45A",
"J. c #A79960",
"K. c #AB9E67",
"L. c #AFA36E",
"P. c #C79946",
"I. c #C89B44",
"U. c #D19E43",
"Y. c #C9A54D",
"T. c #C7A34C",
"R. c #DAA544",
"E. c #D1A849",
"W. c #C8AA51",
"Q. c #C4AD5F",
"!. c #D2A854",
"~. c #DAB851",
/* pixels */
"                                                                ",
"                                                                ",
"              . o . . . .                                       ",
"            . 0 q = + M h $ $ #                                 ",
"          . f  .B. .N o.<.c x z $ . .                           ",
"        . f E.j.B.O.:.V m m <.<.x k > # . .                     ",
"        . ~.I.a..._ 1.m m p m d.U U U e f d + . .               ",
"      . f E.a.s ( ] } R m p 8 8 8 8 t.C.P.I.t O : .             ",
"      . ~.I.i.6 ` E E R m m p 8 i t.C.I.I.a.R m L ; o           ",
"    . f E.a.s 7 W E 8 W d.m 8 8 s C.I.I.a.s L ) I 5 ; .         ",
"    . A.U.p.6 L 2.` L } 0.d.8 t.C.I.I.a.s P ] _ L n m .         ",
"    . A.N.y 4 n U L T ) 2.` 8 p.Y.I.a.a L 2.4.R 7 L b .         ",
"    . ~.N.y 2 3 t.t.i T U L t.C.I.I.p.6 ] 4.' m 2 2 l o .       ",
"    . ~.R.i.v P g.A.t.t.i 8 p.Y.I.a.a 7 W m 2 2 l c F # o       ",
"    . Q.R.p.K ~ F.T.c.c.y.4 p.Y.I.p.3 8 b 2 l c b b H $ .       ",
"    . L.R.p.6 u.~.k.%.D.p.v P c.a.y > 2 l c ^ S n b j g o       ",
"    . L.R.i.y u.W.C.u I.p.K Y V.C.P c c F G / n C 5 O.k .       ",
"    . L.R.i.6 u.F.T.N.R.p.6 s.H.Y.s.I F G / L 7 @.' m.* .       ",
"    . J.!.p.6 i c.c.R.R.p.6 i.T.R.i.6 S / T p 8 0.5.*.. .       ",
"    . J.G.d.K 6 a a N.N.d...#.W.R.i.n I E p p 8 r.4.*.o o       ",
"    . J.x.-.H U =.P a a ;.n. .h.R.i.6 T W R p T } e.&.. .       ",
"    o u e e A 8.e.4./ / q.w. .Z S.p.6 8 ` Q $.' &.&.) . .       ",
"      . . . h M V e.3.3.3.3.@.6.x.s.K R } | M.e.m.( O.. .       ",
"        . . o . @ b.+.k 2.2.J 6.l.~ F ] 3.e.0.&.7.k 9 . o       ",
"              . . w 9 . k k h ,.l.{ ,.<.2.9.) O.g . . . .       ",
"                  . . . . . . h e { A ( D z G v.. o o .         ",
"                    o .   . . . . > - , & . g 9 . .             ",
"                                . . . . . . . . . .             ",
"                                    . o o     . .               ",
"                                                                ",
"                                                                ",
"                                                                "
};
