/* XPM */
static char *out[] = {
/* columns rows colors chars-per-pixel */
"32 32 103 2 ",
"   c #1D1E07",
".  c #1E1E0A",
"X  c #201E12",
"o  c #26260E",
"O  c #24280F",
"+  c #242314",
"@  c #262C12",
"#  c #2C2B15",
"$  c #25231B",
"%  c #2A271C",
"&  c #2E2C1C",
"*  c #302E17",
"=  c #322E1C",
"-  c #2E3414",
";  c #2D331E",
":  c #343612",
">  c #353C15",
",  c #3C3B14",
"<  c #33321C",
"1  c #393719",
"2  c #33391B",
"3  c #3B3C1D",
"4  c #2E2F20",
"5  c #343322",
"6  c #393624",
"7  c #343A24",
"8  c #393B23",
"9  c #3C3B29",
"0  c #423C1B",
"q  c #483E1E",
"w  c #403E25",
"e  c #463F2A",
"r  c #433F30",
"t  c #35411C",
"y  c #39401C",
"u  c #354520",
"i  c #3E4526",
"p  c #3F4029",
"a  c #3D4829",
"s  c #43441A",
"d  c #434424",
"f  c #484327",
"g  c #454E22",
"h  c #4E4C27",
"j  c #43442B",
"k  c #4A432B",
"l  c #454928",
"z  c #4B4B2D",
"x  c #4B5227",
"c  c #4E5826",
"v  c #4D522D",
"b  c #585A2D",
"n  c #454232",
"m  c #494634",
"M  c #464B33",
"N  c #494932",
"B  c #4E493C",
"V  c #504732",
"C  c #514C3B",
"Z  c #535635",
"A  c #585435",
"S  c #565D35",
"D  c #595D32",
"F  c #54543B",
"G  c #58543D",
"H  c #555B3B",
"J  c #585A38",
"K  c #605B3B",
"L  c #58632B",
"P  c #5E633C",
"I  c #64633B",
"U  c #60683C",
"Y  c #6E6B3E",
"T  c #737039",
"R  c #565242",
"E  c #595345",
"W  c #5D5D41",
"Q  c #625D4C",
"!  c #5E6342",
"~  c #626241",
"^  c #6C6E46",
"/  c #65634B",
"(  c #666B4D",
")  c #696A4C",
"_  c #6B7545",
"`  c #6C714B",
"'  c #747346",
"]  c #7B7845",
"[  c #70714D",
"{  c #6A6755",
"}  c #6B6955",
"|  c #767257",
" . c #757B53",
".. c #7D7954",
"X. c #72745A",
"o. c #7A7A5C",
"O. c #7D835F",
"+. c #848151",
"@. c #81895F",
"#. c #8C8A5D",
"$. c #818260",
"%. c #878D6B",
"&. c #959369",
/* pixels */
": D b 1 Z t I u k J x 8 k U P 2 M s ) J v 4 d ( R r E t j 1 k B ",
"y 1 < X.Z d T 7 - b / m q u > , b 3 r N N %. .Z n } S } ^ d n < ",
"P b & j j Q C J t N < Z E L P M < % m L N v 8 U L N f K s N S B ",
"y L ( O.t b m g | T 1 9 < 1 r g k T N y #.M I 3 > m ] h = 2 2 N ",
"@ L N 8 1 h < N ^ 2 O.v ^ b R X.R < L 1 k y b ^ G E 6 < = E R Z ",
". k k L L ! 3 V b { ; 8 d b 1 < = y 2 k _ x 2 n k E j _ % b r ; ",
"U  .1 O y 4 ~ / n Z 8 ^ & 1 I #.d 3  .^ a t > Z Z ; v t j 3 u K ",
"m k 9 #.X  .> L q B D L ..8 U V V R ~ < i Z k & 1 @.U X.E S 2 C ",
"L } 3 1 w v > ~ f $ 9 z T = v m ( z k  .2 & _ &.T L L z ! 4 X ` ",
"1 & @ C L c I x Z f ; B m / E L q C q L 2 N 4 b 3 t Z X.Z 5 6 u ",
"#.h w Z 5 C A & y ( d l 8 ] V y 8 f & W  .& Z G b U v 5 d G G b ",
"= & 5 C 1 T w C V &  .6 N y q & Z ' T 6 U j N d # & %  .L 1 b < ",
"m O.3 i < C , U j m 3 y Z R b & j @ < Z N e 1 X.d J Z Z r 1 W Z ",
"8 N R j < 6 a @ m Z ~ W d t 2 1 %  .l W J q f 5 w q q %.U C Z 8 ",
"j ] f J L % 5 2 z . ~ T e 2 $._ q 8 > > N f I 5 L n f P 8 M G N ",
"C A s 1 k z I $ ) X Y t %.o = 2 i t Z 3 g O.d = 2 5 C u $.C r N ",
"L j m U & 6 3 P 9 t  .g 5 8 % &  .y j 1 1 # 9 < Z % g 2  .f U 3 ",
"y Q < q m < G L t g L 1 b d L j $ 6 1  .x 2 L 2 k +.- Z V k N ! ",
"o ^ ^ f < n % < X.J < b l : 2 % ' T < 2 t P 1 X.s h 3 t 8 C @.q ",
"y 0 f Z j #.k J & < t o.2 ] & %.: d ) h (  .k Z m N G L B k V q ",
"y c C : _ > @.L % 8 b = < T d 2 d Z G 3 1 m C s , Z q 8 m T _ ) ",
"y 2 0 : l [ 3 2 Z ) T V P 1 y L V ; q 2 _ 3 w s t Z q b J m y B ",
"8 y Z Z   < m W < k k % P N T 5 > s  .8 _ 2 1 i D y d f 1 U m Z ",
"2 1 l % < , ) j U j A 2 C F Z N ] h l j 1 _ t L C q j - 1 8 1 8 ",
"k 2 1 D L , j k 2 2 < 1 p Z % < m 1 % e ^ b % Z @.I b   Z X.Z _ ",
"q . T K : S V Z 9 N E U 8 9 W j L G b 3 % k b T 1 & Q t Z q N q ",
"Z e h % < 8 l q O.T C % H j < 2 > < 6 j & Z h T < Y T 2 f i Z B ",
"W Q 3 L g m V _ L < > _ L y !  .v ) 8 1 Z U 1 1 b 1 8 w D 6 E 8 ",
"S G < : B X.b j & 5 T + 1 b C 8 8 B ! 1 ; & N < < 1 H v N ( w P ",
"y t y %.# 1 e q u P 1 2 t < : X.% 1 q 1 n 3 L 2 & k l N 5 < < 1 ",
"L N T ^ k e Z r P l m A O s W Z j n Z  .L N : t Z G 9 < > b < L ",
"N 7 w = * : 8 k ! d ) 1 & = q V L s j V < 2 d b $ B > 1 L < } E "
};
